<svg viewBox="0 0 296 391" xmlns="http://www.w3.org/2000/svg" width="296" height="391">
<rect width="100%" height="100%" fill="white"/>
<line x1="55" y1="65" x2="261" y2="65" stroke="#cc0000" stroke-width="1.5" stroke-dasharray="10,5"/>
<text x="52" y="59" font-family="monospace" font-size="9" fill="#cc0000" text-anchor="end">DATUM Y=0</text>
<text x="52" y="69" font-family="monospace" font-size="9" fill="#cc0000" text-anchor="end">(BLOW END)</text>
<text x="120" y="43" font-family="monospace" font-size="10" font-weight="bold" fill="#2a6db5" text-anchor="middle">ARKA ♀  (7 tubes)</text>
<text x="213" y="43" font-family="monospace" font-size="10" font-weight="bold" fill="#c46a00" text-anchor="middle">IRA ♂  (6 tubes)</text>
<line x1="170.2" y1="50" x2="170.2" y2="301.2892898390089" stroke="#ddd" stroke-width="1.5" stroke-dasharray="5,5"/>
<rect x="70.0" y="65.0" width="13.2" height="226.3" fill="#2a6db5" fill-opacity="0.15" stroke="#2a6db5" stroke-width="1.5"/>
<line x1="76.6" y1="65" x2="76.6" y2="291.3" stroke="#2a6db5" stroke-width="0.6" stroke-dasharray="5,4" opacity="0.5"/>
<text transform="rotate(-90,76.6,178.1)" x="76.6" y="178.1" font-family="monospace" font-size="9" fill="#2a6db5" text-anchor="middle" font-weight="bold">D4</text>
<text transform="rotate(-90,76.6,83)" x="76.6" y="83" font-family="monospace" font-size="7" fill="#2a6db5" text-anchor="middle" opacity="0.8">294Hz</text>
<line x1="76.6" y1="291.3" x2="76.6" y2="299.3" stroke="#666" stroke-width="0.8"/>
<text x="76.6" y="309.3" font-family="monospace" font-size="8" fill="#333" text-anchor="middle">11.314"</text>
<text x="76.6" y="321.3" font-family="monospace" font-size="8" fill="#2a6db5" text-anchor="middle">A1</text>
<rect x="84.4" y="65.0" width="13.2" height="178.7" fill="#2a6db5" fill-opacity="0.15" stroke="#2a6db5" stroke-width="1.5"/>
<line x1="91.0" y1="65" x2="91.0" y2="243.7" stroke="#2a6db5" stroke-width="0.6" stroke-dasharray="5,4" opacity="0.5"/>
<text transform="rotate(-90,91.0,154.3)" x="91.0" y="154.3" font-family="monospace" font-size="9" fill="#2a6db5" text-anchor="middle" font-weight="bold">F#4</text>
<text transform="rotate(-90,91.0,83)" x="91.0" y="83" font-family="monospace" font-size="7" fill="#2a6db5" text-anchor="middle" opacity="0.8">370Hz</text>
<line x1="91.0" y1="243.7" x2="91.0" y2="251.7" stroke="#666" stroke-width="0.8"/>
<text x="91.0" y="261.7" font-family="monospace" font-size="8" fill="#333" text-anchor="middle">8.934"</text>
<text x="91.0" y="273.7" font-family="monospace" font-size="8" fill="#2a6db5" text-anchor="middle">A2</text>
<rect x="98.8" y="65.0" width="13.2" height="149.6" fill="#2a6db5" fill-opacity="0.15" stroke="#2a6db5" stroke-width="1.5"/>
<line x1="105.4" y1="65" x2="105.4" y2="214.6" stroke="#2a6db5" stroke-width="0.6" stroke-dasharray="5,4" opacity="0.5"/>
<text transform="rotate(-90,105.4,139.8)" x="105.4" y="139.8" font-family="monospace" font-size="9" fill="#2a6db5" text-anchor="middle" font-weight="bold">A4</text>
<text transform="rotate(-90,105.4,83)" x="105.4" y="83" font-family="monospace" font-size="7" fill="#2a6db5" text-anchor="middle" opacity="0.8">440Hz</text>
<line x1="105.4" y1="214.6" x2="105.4" y2="222.6" stroke="#666" stroke-width="0.8"/>
<text x="105.4" y="232.6" font-family="monospace" font-size="8" fill="#333" text-anchor="middle">7.478"</text>
<text x="105.4" y="244.6" font-family="monospace" font-size="8" fill="#2a6db5" text-anchor="middle">A3</text>
<rect x="113.2" y="65.0" width="13.2" height="125.0" fill="#2a6db5" fill-opacity="0.15" stroke="#2a6db5" stroke-width="1.5"/>
<line x1="119.8" y1="65" x2="119.8" y2="190.0" stroke="#2a6db5" stroke-width="0.6" stroke-dasharray="5,4" opacity="0.5"/>
<text transform="rotate(-90,119.8,127.5)" x="119.8" y="127.5" font-family="monospace" font-size="9" fill="#2a6db5" text-anchor="middle" font-weight="bold">C5</text>
<text transform="rotate(-90,119.8,83)" x="119.8" y="83" font-family="monospace" font-size="7" fill="#2a6db5" text-anchor="middle" opacity="0.8">523Hz</text>
<line x1="119.8" y1="190.0" x2="119.8" y2="198.0" stroke="#666" stroke-width="0.8"/>
<text x="119.8" y="208.0" font-family="monospace" font-size="8" fill="#333" text-anchor="middle">6.252"</text>
<text x="119.8" y="220.0" font-family="monospace" font-size="8" fill="#2a6db5" text-anchor="middle">A4</text>
<rect x="127.6" y="65.0" width="13.2" height="98.3" fill="#2a6db5" fill-opacity="0.15" stroke="#2a6db5" stroke-width="1.5"/>
<line x1="134.2" y1="65" x2="134.2" y2="163.3" stroke="#2a6db5" stroke-width="0.6" stroke-dasharray="5,4" opacity="0.5"/>
<text transform="rotate(-90,134.2,114.2)" x="134.2" y="114.2" font-family="monospace" font-size="9" fill="#2a6db5" text-anchor="middle" font-weight="bold">E5</text>
<text transform="rotate(-90,134.2,83)" x="134.2" y="83" font-family="monospace" font-size="7" fill="#2a6db5" text-anchor="middle" opacity="0.8">659Hz</text>
<line x1="134.2" y1="163.3" x2="134.2" y2="171.3" stroke="#666" stroke-width="0.8"/>
<text x="134.2" y="181.3" font-family="monospace" font-size="8" fill="#333" text-anchor="middle">4.917"</text>
<text x="134.2" y="193.3" font-family="monospace" font-size="8" fill="#2a6db5" text-anchor="middle">A5</text>
<rect x="142.1" y="65.0" width="13.2" height="82.0" fill="#2a6db5" fill-opacity="0.15" stroke="#2a6db5" stroke-width="1.5"/>
<line x1="148.6" y1="65" x2="148.6" y2="147.0" stroke="#2a6db5" stroke-width="0.6" stroke-dasharray="5,4" opacity="0.5"/>
<text transform="rotate(-90,148.6,106.0)" x="148.6" y="106.0" font-family="monospace" font-size="9" fill="#2a6db5" text-anchor="middle" font-weight="bold">G5</text>
<text transform="rotate(-90,148.6,83)" x="148.6" y="83" font-family="monospace" font-size="7" fill="#2a6db5" text-anchor="middle" opacity="0.8">784Hz</text>
<line x1="148.6" y1="147.0" x2="148.6" y2="155.0" stroke="#666" stroke-width="0.8"/>
<text x="148.6" y="165.0" font-family="monospace" font-size="8" fill="#333" text-anchor="middle">4.099"</text>
<text x="148.6" y="177.0" font-family="monospace" font-size="8" fill="#2a6db5" text-anchor="middle">A6</text>
<rect x="156.5" y="65.0" width="13.2" height="64.1" fill="#2a6db5" fill-opacity="0.15" stroke="#2a6db5" stroke-width="1.5"/>
<line x1="163.0" y1="65" x2="163.0" y2="129.1" stroke="#2a6db5" stroke-width="0.6" stroke-dasharray="5,4" opacity="0.5"/>
<text transform="rotate(-90,163.0,97.1)" x="163.0" y="97.1" font-family="monospace" font-size="9" fill="#2a6db5" text-anchor="middle" font-weight="bold">B5</text>
<text transform="rotate(-90,163.0,83)" x="163.0" y="83" font-family="monospace" font-size="7" fill="#2a6db5" text-anchor="middle" opacity="0.8">988Hz</text>
<line x1="163.0" y1="129.1" x2="163.0" y2="137.1" stroke="#666" stroke-width="0.8"/>
<text x="163.0" y="147.1" font-family="monospace" font-size="8" fill="#333" text-anchor="middle">3.207"</text>
<text x="163.0" y="159.1" font-family="monospace" font-size="8" fill="#2a6db5" text-anchor="middle">A7</text>
<rect x="170.9" y="65.0" width="13.2" height="201.1" fill="#c46a00" fill-opacity="0.15" stroke="#c46a00" stroke-width="1.5"/>
<line x1="177.5" y1="65" x2="177.5" y2="266.1" stroke="#c46a00" stroke-width="0.6" stroke-dasharray="5,4" opacity="0.5"/>
<text transform="rotate(-90,177.5,165.6)" x="177.5" y="165.6" font-family="monospace" font-size="9" fill="#c46a00" text-anchor="middle" font-weight="bold">E4</text>
<text transform="rotate(-90,177.5,83)" x="177.5" y="83" font-family="monospace" font-size="7" fill="#c46a00" text-anchor="middle" opacity="0.8">330Hz</text>
<line x1="177.5" y1="266.1" x2="177.5" y2="274.1" stroke="#666" stroke-width="0.8"/>
<text x="177.5" y="284.1" font-family="monospace" font-size="8" fill="#333" text-anchor="middle">10.056"</text>
<text x="177.5" y="296.1" font-family="monospace" font-size="8" fill="#c46a00" text-anchor="middle">I1</text>
<rect x="185.3" y="65.0" width="13.2" height="168.4" fill="#c46a00" fill-opacity="0.15" stroke="#c46a00" stroke-width="1.5"/>
<line x1="191.9" y1="65" x2="191.9" y2="233.4" stroke="#c46a00" stroke-width="0.6" stroke-dasharray="5,4" opacity="0.5"/>
<text transform="rotate(-90,191.9,149.2)" x="191.9" y="149.2" font-family="monospace" font-size="9" fill="#c46a00" text-anchor="middle" font-weight="bold">G4</text>
<text transform="rotate(-90,191.9,83)" x="191.9" y="83" font-family="monospace" font-size="7" fill="#c46a00" text-anchor="middle" opacity="0.8">392Hz</text>
<line x1="191.9" y1="233.4" x2="191.9" y2="241.4" stroke="#666" stroke-width="0.8"/>
<text x="191.9" y="251.4" font-family="monospace" font-size="8" fill="#333" text-anchor="middle">8.420"</text>
<text x="191.9" y="263.4" font-family="monospace" font-size="8" fill="#c46a00" text-anchor="middle">I2</text>
<rect x="199.7" y="65.0" width="13.2" height="132.7" fill="#c46a00" fill-opacity="0.15" stroke="#c46a00" stroke-width="1.5"/>
<line x1="206.3" y1="65" x2="206.3" y2="197.7" stroke="#c46a00" stroke-width="0.6" stroke-dasharray="5,4" opacity="0.5"/>
<text transform="rotate(-90,206.3,131.4)" x="206.3" y="131.4" font-family="monospace" font-size="9" fill="#c46a00" text-anchor="middle" font-weight="bold">B4</text>
<text transform="rotate(-90,206.3,83)" x="206.3" y="83" font-family="monospace" font-size="7" fill="#c46a00" text-anchor="middle" opacity="0.8">494Hz</text>
<line x1="206.3" y1="197.7" x2="206.3" y2="205.7" stroke="#666" stroke-width="0.8"/>
<text x="206.3" y="215.7" font-family="monospace" font-size="8" fill="#333" text-anchor="middle">6.637"</text>
<text x="206.3" y="227.7" font-family="monospace" font-size="8" fill="#c46a00" text-anchor="middle">I3</text>
<rect x="214.1" y="65.0" width="13.2" height="110.9" fill="#c46a00" fill-opacity="0.15" stroke="#c46a00" stroke-width="1.5"/>
<line x1="220.7" y1="65" x2="220.7" y2="175.9" stroke="#c46a00" stroke-width="0.6" stroke-dasharray="5,4" opacity="0.5"/>
<text transform="rotate(-90,220.7,120.5)" x="220.7" y="120.5" font-family="monospace" font-size="9" fill="#c46a00" text-anchor="middle" font-weight="bold">D5</text>
<text transform="rotate(-90,220.7,83)" x="220.7" y="83" font-family="monospace" font-size="7" fill="#c46a00" text-anchor="middle" opacity="0.8">587Hz</text>
<line x1="220.7" y1="175.9" x2="220.7" y2="183.9" stroke="#666" stroke-width="0.8"/>
<text x="220.7" y="193.9" font-family="monospace" font-size="8" fill="#333" text-anchor="middle">5.546"</text>
<text x="220.7" y="205.9" font-family="monospace" font-size="8" fill="#c46a00" text-anchor="middle">I4</text>
<rect x="228.5" y="65.0" width="13.2" height="87.1" fill="#c46a00" fill-opacity="0.15" stroke="#c46a00" stroke-width="1.5"/>
<line x1="235.1" y1="65" x2="235.1" y2="152.1" stroke="#c46a00" stroke-width="0.6" stroke-dasharray="5,4" opacity="0.5"/>
<text transform="rotate(-90,235.1,108.6)" x="235.1" y="108.6" font-family="monospace" font-size="9" fill="#c46a00" text-anchor="middle" font-weight="bold">F#5</text>
<text transform="rotate(-90,235.1,83)" x="235.1" y="83" font-family="monospace" font-size="7" fill="#c46a00" text-anchor="middle" opacity="0.8">740Hz</text>
<line x1="235.1" y1="152.1" x2="235.1" y2="160.1" stroke="#666" stroke-width="0.8"/>
<text x="235.1" y="170.1" font-family="monospace" font-size="8" fill="#333" text-anchor="middle">4.356"</text>
<text x="235.1" y="182.1" font-family="monospace" font-size="8" fill="#c46a00" text-anchor="middle">I5</text>
<rect x="242.9" y="65.0" width="13.2" height="72.5" fill="#c46a00" fill-opacity="0.15" stroke="#c46a00" stroke-width="1.5"/>
<line x1="249.5" y1="65" x2="249.5" y2="137.6" stroke="#c46a00" stroke-width="0.6" stroke-dasharray="5,4" opacity="0.5"/>
<text transform="rotate(-90,249.5,101.3)" x="249.5" y="101.3" font-family="monospace" font-size="9" fill="#c46a00" text-anchor="middle" font-weight="bold">A5</text>
<text transform="rotate(-90,249.5,83)" x="249.5" y="83" font-family="monospace" font-size="7" fill="#c46a00" text-anchor="middle" opacity="0.8">880Hz</text>
<line x1="249.5" y1="137.6" x2="249.5" y2="145.6" stroke="#666" stroke-width="0.8"/>
<text x="249.5" y="155.6" font-family="monospace" font-size="8" fill="#333" text-anchor="middle">3.627"</text>
<text x="249.5" y="167.6" font-family="monospace" font-size="8" fill="#c46a00" text-anchor="middle">I6</text>
<line x1="70.0" y1="341.2892898390089" x2="256.1" y2="341.2892898390089" stroke="#333" stroke-width="1.2"/>
<line x1="70.0" y1="335.2892898390089" x2="70.0" y2="347.2892898390089" stroke="#333" stroke-width="1.2"/>
<line x1="256.1" y1="335.2892898390089" x2="256.1" y2="347.2892898390089" stroke="#333" stroke-width="1.2"/>
<text x="163.0" y="357.2892898390089" font-family="monospace" font-size="9" text-anchor="middle">FRAME WIDTH = 9.304"  (13 tubes, 1/16" gap)</text>
<line x1="30" y1="65" x2="30" y2="291.3" stroke="#333" stroke-width="1.2"/>
<line x1="24" y1="65" x2="36" y2="65" stroke="#333" stroke-width="1.2"/>
<line x1="24" y1="291.3" x2="36" y2="291.3" stroke="#333" stroke-width="1.2"/>
<text transform="rotate(-90,18,178.1)" x="18" y="178.1" font-family="monospace" font-size="9" text-anchor="middle">LONGEST = 11.314"</text>
<rect x="0" y="316" width="296" height="75" fill="#f5f5f5" stroke="#444" stroke-width="1"/>
<line x1="0" y1="316" x2="296" y2="316" stroke="#444" stroke-width="1.5"/>
<text x="10" y="334" font-family="monospace" font-size="12" font-weight="bold">SIKU (ZAMPOÑA) · MALTA · KEY G4   —   FRONT ELEVATION</text>
<text x="10" y="350" font-family="monospace" font-size="9">Tube array: Arka 7 tubes (blue) + Ira 6 tubes (orange)   |   Bore ID: 0.5"   OD: 0.658"   Wall: 0.079"   Longest: 11.314"   Shortest: 3.207"</text>
<text x="10" y="364" font-family="monospace" font-size="9">Formula: L = 13552/(4×f) − 0.82×bore  +  3/16" trim allowance   |   c = 13552 in/s @ 68°F</text>
<text x="10" y="378" font-family="monospace" font-size="9">Date: 2026-05-08   Rev: A   Ref: siku-zampona-design-table.xlsx   tonykoop/siku-zampona   CC BY 4.0</text>
</svg>