<svg viewBox="0 0 341 228" xmlns="http://www.w3.org/2000/svg" width="341" height="228">
<rect width="100%" height="100%" fill="white"/>
<rect x="50" y="60" width="261.1" height="48.0" fill="#f5e6c8" stroke="#666" stroke-width="1.5"/>
<rect x="66.0" y="60.0" width="15.8" height="5.2" fill="#aac8e0" stroke="#2a6db5" stroke-width="0.8" rx="1.8"/>
<line x1="73.9" y1="52" x2="73.9" y2="116.0" stroke="#bbb" stroke-width="0.6" stroke-dasharray="3,3"/>
<text x="73.9" y="128.0" font-family="monospace" font-size="8" text-anchor="middle" fill="#2a6db5">A1</text>
<rect x="83.8" y="60.0" width="15.8" height="5.2" fill="#aac8e0" stroke="#2a6db5" stroke-width="0.8" rx="1.8"/>
<line x1="91.7" y1="52" x2="91.7" y2="116.0" stroke="#bbb" stroke-width="0.6" stroke-dasharray="3,3"/>
<text x="91.7" y="128.0" font-family="monospace" font-size="8" text-anchor="middle" fill="#2a6db5">A2</text>
<rect x="101.6" y="60.0" width="15.8" height="5.2" fill="#aac8e0" stroke="#2a6db5" stroke-width="0.8" rx="1.8"/>
<line x1="109.4" y1="52" x2="109.4" y2="116.0" stroke="#bbb" stroke-width="0.6" stroke-dasharray="3,3"/>
<text x="109.4" y="128.0" font-family="monospace" font-size="8" text-anchor="middle" fill="#2a6db5">A3</text>
<rect x="119.3" y="60.0" width="15.8" height="5.2" fill="#aac8e0" stroke="#2a6db5" stroke-width="0.8" rx="1.8"/>
<line x1="127.2" y1="52" x2="127.2" y2="116.0" stroke="#bbb" stroke-width="0.6" stroke-dasharray="3,3"/>
<text x="127.2" y="128.0" font-family="monospace" font-size="8" text-anchor="middle" fill="#2a6db5">A4</text>
<rect x="137.1" y="60.0" width="15.8" height="5.2" fill="#aac8e0" stroke="#2a6db5" stroke-width="0.8" rx="1.8"/>
<line x1="145.0" y1="52" x2="145.0" y2="116.0" stroke="#bbb" stroke-width="0.6" stroke-dasharray="3,3"/>
<text x="145.0" y="128.0" font-family="monospace" font-size="8" text-anchor="middle" fill="#2a6db5">A5</text>
<rect x="154.9" y="60.0" width="15.8" height="5.2" fill="#aac8e0" stroke="#2a6db5" stroke-width="0.8" rx="1.8"/>
<line x1="162.8" y1="52" x2="162.8" y2="116.0" stroke="#bbb" stroke-width="0.6" stroke-dasharray="3,3"/>
<text x="162.8" y="128.0" font-family="monospace" font-size="8" text-anchor="middle" fill="#2a6db5">A6</text>
<rect x="172.7" y="60.0" width="15.8" height="5.2" fill="#aac8e0" stroke="#2a6db5" stroke-width="0.8" rx="1.8"/>
<line x1="180.5" y1="52" x2="180.5" y2="116.0" stroke="#bbb" stroke-width="0.6" stroke-dasharray="3,3"/>
<text x="180.5" y="128.0" font-family="monospace" font-size="8" text-anchor="middle" fill="#2a6db5">A7</text>
<rect x="190.4" y="60.0" width="15.8" height="5.2" fill="#aac8e0" stroke="#2a6db5" stroke-width="0.8" rx="1.8"/>
<line x1="198.3" y1="52" x2="198.3" y2="116.0" stroke="#bbb" stroke-width="0.6" stroke-dasharray="3,3"/>
<text x="198.3" y="128.0" font-family="monospace" font-size="8" text-anchor="middle" fill="#c46a00">I1</text>
<rect x="208.2" y="60.0" width="15.8" height="5.2" fill="#aac8e0" stroke="#2a6db5" stroke-width="0.8" rx="1.8"/>
<line x1="216.1" y1="52" x2="216.1" y2="116.0" stroke="#bbb" stroke-width="0.6" stroke-dasharray="3,3"/>
<text x="216.1" y="128.0" font-family="monospace" font-size="8" text-anchor="middle" fill="#c46a00">I2</text>
<rect x="226.0" y="60.0" width="15.8" height="5.2" fill="#aac8e0" stroke="#2a6db5" stroke-width="0.8" rx="1.8"/>
<line x1="233.9" y1="52" x2="233.9" y2="116.0" stroke="#bbb" stroke-width="0.6" stroke-dasharray="3,3"/>
<text x="233.9" y="128.0" font-family="monospace" font-size="8" text-anchor="middle" fill="#c46a00">I3</text>
<rect x="243.8" y="60.0" width="15.8" height="5.2" fill="#aac8e0" stroke="#2a6db5" stroke-width="0.8" rx="1.8"/>
<line x1="251.6" y1="52" x2="251.6" y2="116.0" stroke="#bbb" stroke-width="0.6" stroke-dasharray="3,3"/>
<text x="251.6" y="128.0" font-family="monospace" font-size="8" text-anchor="middle" fill="#c46a00">I4</text>
<rect x="261.5" y="60.0" width="15.8" height="5.2" fill="#aac8e0" stroke="#2a6db5" stroke-width="0.8" rx="1.8"/>
<line x1="269.4" y1="52" x2="269.4" y2="116.0" stroke="#bbb" stroke-width="0.6" stroke-dasharray="3,3"/>
<text x="269.4" y="128.0" font-family="monospace" font-size="8" text-anchor="middle" fill="#c46a00">I5</text>
<rect x="279.3" y="60.0" width="15.8" height="5.2" fill="#aac8e0" stroke="#2a6db5" stroke-width="0.8" rx="1.8"/>
<line x1="287.2" y1="52" x2="287.2" y2="116.0" stroke="#bbb" stroke-width="0.6" stroke-dasharray="3,3"/>
<text x="287.2" y="128.0" font-family="monospace" font-size="8" text-anchor="middle" fill="#c46a00">I6</text>
<line x1="55" y1="60" x2="55" y2="65.2" stroke="#2a6db5" stroke-width="1.5" marker-end="url(#arr)"/>
<text x="60" y="69.2" font-family="monospace" font-size="9" fill="#2a6db5">Pocket depth = 0.164"  (1/3 × OD)</text>
<circle cx="58.0" cy="84.0" r="3" fill="white" stroke="#444" stroke-width="1.2"/>
<text x="58.0" y="99.0" font-family="monospace" font-size="8" text-anchor="middle" fill="#444">⌀1/8"</text>
<circle cx="303.1" cy="84.0" r="3" fill="white" stroke="#444" stroke-width="1.2"/>
<text x="303.1" y="99.0" font-family="monospace" font-size="8" text-anchor="middle" fill="#444">⌀1/8"</text>
<line x1="50" y1="163.0" x2="311.1" y2="163.0" stroke="#333" stroke-width="1"/>
<line x1="50.0" y1="158.0" x2="50.0" y2="168.0" stroke="#333" stroke-width="1"/>
<line x1="311.1" y1="158.0" x2="311.1" y2="168.0" stroke="#333" stroke-width="1"/>
<text x="180.5" y="178.0" font-family="monospace" font-size="9" text-anchor="middle">Rail total: 8.159"  (incl. ½" overhang each end)</text>
<line x1="66.0" y1="191.0" x2="295.1" y2="191.0" stroke="#333" stroke-width="1.2"/>
<line x1="66.0" y1="186.0" x2="66.0" y2="196.0" stroke="#333" stroke-width="1.2"/>
<line x1="295.1" y1="186.0" x2="295.1" y2="196.0" stroke="#333" stroke-width="1.2"/>
<text x="180.5" y="206.0" font-family="monospace" font-size="9" text-anchor="middle" font-weight="bold">Frame width = 7.159"  (13 pockets @ 0.5555" c/c)</text>
<rect x="0" y="163" width="341" height="65" fill="#f5f5f5" stroke="#444" stroke-width="1"/>
<text x="10" y="179" font-family="monospace" font-size="11" font-weight="bold">SIKU · CHILI · KEY D5  —  FRAME RAIL PLAN (Top View)</text>
<text x="10" y="193" font-family="monospace" font-size="9">Rail: 3/8" thick × 1.5" wide × 8.159" long   |   OD: 0.493"   Pocket: 0.493"W × 0.164"D (1/3 OD)   Spacing: 0.5555" c/c</text>
<text x="10" y="207" font-family="monospace" font-size="9">Species: Cherry or Walnut  |  Finish: Watco Danish Oil 3 coats  |  Cord holes: ⌀1/8" at each end</text>
<text x="10" y="221" font-family="monospace" font-size="9">Date: 2026-05-08   Rev: A   tonykoop/siku-zampona   CC BY 4.0</text>
</svg>