<svg viewBox="0 0 477 228" xmlns="http://www.w3.org/2000/svg" width="477" height="228">
<rect width="100%" height="100%" fill="white"/>
<rect x="50" y="60" width="397.5" height="48.0" fill="#f5e6c8" stroke="#666" stroke-width="1.5"/>
<rect x="66.0" y="60.0" width="26.3" height="8.8" fill="#aac8e0" stroke="#2a6db5" stroke-width="0.8" rx="3.1"/>
<line x1="79.1" y1="52" x2="79.1" y2="116.0" stroke="#bbb" stroke-width="0.6" stroke-dasharray="3,3"/>
<text x="79.1" y="128.0" font-family="monospace" font-size="8" text-anchor="middle" fill="#2a6db5">A1</text>
<rect x="94.3" y="60.0" width="26.3" height="8.8" fill="#aac8e0" stroke="#2a6db5" stroke-width="0.8" rx="3.1"/>
<line x1="107.4" y1="52" x2="107.4" y2="116.0" stroke="#bbb" stroke-width="0.6" stroke-dasharray="3,3"/>
<text x="107.4" y="128.0" font-family="monospace" font-size="8" text-anchor="middle" fill="#2a6db5">A2</text>
<rect x="122.5" y="60.0" width="26.3" height="8.8" fill="#aac8e0" stroke="#2a6db5" stroke-width="0.8" rx="3.1"/>
<line x1="135.7" y1="52" x2="135.7" y2="116.0" stroke="#bbb" stroke-width="0.6" stroke-dasharray="3,3"/>
<text x="135.7" y="128.0" font-family="monospace" font-size="8" text-anchor="middle" fill="#2a6db5">A3</text>
<rect x="150.8" y="60.0" width="26.3" height="8.8" fill="#aac8e0" stroke="#2a6db5" stroke-width="0.8" rx="3.1"/>
<line x1="164.0" y1="52" x2="164.0" y2="116.0" stroke="#bbb" stroke-width="0.6" stroke-dasharray="3,3"/>
<text x="164.0" y="128.0" font-family="monospace" font-size="8" text-anchor="middle" fill="#2a6db5">A4</text>
<rect x="179.1" y="60.0" width="26.3" height="8.8" fill="#aac8e0" stroke="#2a6db5" stroke-width="0.8" rx="3.1"/>
<line x1="192.2" y1="52" x2="192.2" y2="116.0" stroke="#bbb" stroke-width="0.6" stroke-dasharray="3,3"/>
<text x="192.2" y="128.0" font-family="monospace" font-size="8" text-anchor="middle" fill="#2a6db5">A5</text>
<rect x="207.4" y="60.0" width="26.3" height="8.8" fill="#aac8e0" stroke="#2a6db5" stroke-width="0.8" rx="3.1"/>
<line x1="220.5" y1="52" x2="220.5" y2="116.0" stroke="#bbb" stroke-width="0.6" stroke-dasharray="3,3"/>
<text x="220.5" y="128.0" font-family="monospace" font-size="8" text-anchor="middle" fill="#2a6db5">A6</text>
<rect x="235.6" y="60.0" width="26.3" height="8.8" fill="#aac8e0" stroke="#2a6db5" stroke-width="0.8" rx="3.1"/>
<line x1="248.8" y1="52" x2="248.8" y2="116.0" stroke="#bbb" stroke-width="0.6" stroke-dasharray="3,3"/>
<text x="248.8" y="128.0" font-family="monospace" font-size="8" text-anchor="middle" fill="#2a6db5">A7</text>
<rect x="263.9" y="60.0" width="26.3" height="8.8" fill="#aac8e0" stroke="#2a6db5" stroke-width="0.8" rx="3.1"/>
<line x1="277.0" y1="52" x2="277.0" y2="116.0" stroke="#bbb" stroke-width="0.6" stroke-dasharray="3,3"/>
<text x="277.0" y="128.0" font-family="monospace" font-size="8" text-anchor="middle" fill="#c46a00">I1</text>
<rect x="292.2" y="60.0" width="26.3" height="8.8" fill="#aac8e0" stroke="#2a6db5" stroke-width="0.8" rx="3.1"/>
<line x1="305.3" y1="52" x2="305.3" y2="116.0" stroke="#bbb" stroke-width="0.6" stroke-dasharray="3,3"/>
<text x="305.3" y="128.0" font-family="monospace" font-size="8" text-anchor="middle" fill="#c46a00">I2</text>
<rect x="320.4" y="60.0" width="26.3" height="8.8" fill="#aac8e0" stroke="#2a6db5" stroke-width="0.8" rx="3.1"/>
<line x1="333.6" y1="52" x2="333.6" y2="116.0" stroke="#bbb" stroke-width="0.6" stroke-dasharray="3,3"/>
<text x="333.6" y="128.0" font-family="monospace" font-size="8" text-anchor="middle" fill="#c46a00">I3</text>
<rect x="348.7" y="60.0" width="26.3" height="8.8" fill="#aac8e0" stroke="#2a6db5" stroke-width="0.8" rx="3.1"/>
<line x1="361.9" y1="52" x2="361.9" y2="116.0" stroke="#bbb" stroke-width="0.6" stroke-dasharray="3,3"/>
<text x="361.9" y="128.0" font-family="monospace" font-size="8" text-anchor="middle" fill="#c46a00">I4</text>
<rect x="377.0" y="60.0" width="26.3" height="8.8" fill="#aac8e0" stroke="#2a6db5" stroke-width="0.8" rx="3.1"/>
<line x1="390.1" y1="52" x2="390.1" y2="116.0" stroke="#bbb" stroke-width="0.6" stroke-dasharray="3,3"/>
<text x="390.1" y="128.0" font-family="monospace" font-size="8" text-anchor="middle" fill="#c46a00">I5</text>
<rect x="405.3" y="60.0" width="26.3" height="8.8" fill="#aac8e0" stroke="#2a6db5" stroke-width="0.8" rx="3.1"/>
<line x1="418.4" y1="52" x2="418.4" y2="116.0" stroke="#bbb" stroke-width="0.6" stroke-dasharray="3,3"/>
<text x="418.4" y="128.0" font-family="monospace" font-size="8" text-anchor="middle" fill="#c46a00">I6</text>
<line x1="55" y1="60" x2="55" y2="68.8" stroke="#2a6db5" stroke-width="1.5" marker-end="url(#arr)"/>
<text x="60" y="72.8" font-family="monospace" font-size="9" fill="#2a6db5">Pocket depth = 0.274"  (1/3 × OD)</text>
<circle cx="58.0" cy="84.0" r="3" fill="white" stroke="#444" stroke-width="1.2"/>
<text x="58.0" y="99.0" font-family="monospace" font-size="8" text-anchor="middle" fill="#444">⌀1/8"</text>
<circle cx="439.5" cy="84.0" r="3" fill="white" stroke="#444" stroke-width="1.2"/>
<text x="439.5" y="99.0" font-family="monospace" font-size="8" text-anchor="middle" fill="#444">⌀1/8"</text>
<line x1="50" y1="163.0" x2="447.5" y2="163.0" stroke="#333" stroke-width="1"/>
<line x1="50.0" y1="158.0" x2="50.0" y2="168.0" stroke="#333" stroke-width="1"/>
<line x1="447.5" y1="158.0" x2="447.5" y2="168.0" stroke="#333" stroke-width="1"/>
<text x="248.8" y="178.0" font-family="monospace" font-size="9" text-anchor="middle">Rail total: 12.423"  (incl. ½" overhang each end)</text>
<line x1="66.0" y1="191.0" x2="431.5" y2="191.0" stroke="#333" stroke-width="1.2"/>
<line x1="66.0" y1="186.0" x2="66.0" y2="196.0" stroke="#333" stroke-width="1.2"/>
<line x1="431.5" y1="186.0" x2="431.5" y2="196.0" stroke="#333" stroke-width="1.2"/>
<text x="248.8" y="206.0" font-family="monospace" font-size="9" text-anchor="middle" font-weight="bold">Frame width = 11.423"  (13 pockets @ 0.8835" c/c)</text>
<rect x="0" y="163" width="477" height="65" fill="#f5f5f5" stroke="#444" stroke-width="1"/>
<text x="10" y="179" font-family="monospace" font-size="11" font-weight="bold">SIKU · ZANKA · KEY C4  —  FRAME RAIL PLAN (Top View)</text>
<text x="10" y="193" font-family="monospace" font-size="9">Rail: 3/8" thick × 1.5" wide × 12.423" long   |   OD: 0.821"   Pocket: 0.821"W × 0.274"D (1/3 OD)   Spacing: 0.8835" c/c</text>
<text x="10" y="207" font-family="monospace" font-size="9">Species: Cherry or Walnut  |  Finish: Watco Danish Oil 3 coats  |  Cord holes: ⌀1/8" at each end</text>
<text x="10" y="221" font-family="monospace" font-size="9">Date: 2026-05-08   Rev: A   tonykoop/siku-zampona   CC BY 4.0</text>
</svg>