<svg viewBox="0 0 409 228" xmlns="http://www.w3.org/2000/svg" width="409" height="228">
<rect width="100%" height="100%" fill="white"/>
<rect x="50" y="60" width="329.7" height="48.0" fill="#f5e6c8" stroke="#666" stroke-width="1.5"/>
<rect x="66.0" y="60.0" width="21.1" height="7.0" fill="#aac8e0" stroke="#2a6db5" stroke-width="0.8" rx="2.5"/>
<line x1="76.5" y1="52" x2="76.5" y2="116.0" stroke="#bbb" stroke-width="0.6" stroke-dasharray="3,3"/>
<text x="76.5" y="128.0" font-family="monospace" font-size="8" text-anchor="middle" fill="#2a6db5">A1</text>
<rect x="89.1" y="60.0" width="21.1" height="7.0" fill="#aac8e0" stroke="#2a6db5" stroke-width="0.8" rx="2.5"/>
<line x1="99.6" y1="52" x2="99.6" y2="116.0" stroke="#bbb" stroke-width="0.6" stroke-dasharray="3,3"/>
<text x="99.6" y="128.0" font-family="monospace" font-size="8" text-anchor="middle" fill="#2a6db5">A2</text>
<rect x="112.1" y="60.0" width="21.1" height="7.0" fill="#aac8e0" stroke="#2a6db5" stroke-width="0.8" rx="2.5"/>
<line x1="122.6" y1="52" x2="122.6" y2="116.0" stroke="#bbb" stroke-width="0.6" stroke-dasharray="3,3"/>
<text x="122.6" y="128.0" font-family="monospace" font-size="8" text-anchor="middle" fill="#2a6db5">A3</text>
<rect x="135.2" y="60.0" width="21.1" height="7.0" fill="#aac8e0" stroke="#2a6db5" stroke-width="0.8" rx="2.5"/>
<line x1="145.7" y1="52" x2="145.7" y2="116.0" stroke="#bbb" stroke-width="0.6" stroke-dasharray="3,3"/>
<text x="145.7" y="128.0" font-family="monospace" font-size="8" text-anchor="middle" fill="#2a6db5">A4</text>
<rect x="158.2" y="60.0" width="21.1" height="7.0" fill="#aac8e0" stroke="#2a6db5" stroke-width="0.8" rx="2.5"/>
<line x1="168.8" y1="52" x2="168.8" y2="116.0" stroke="#bbb" stroke-width="0.6" stroke-dasharray="3,3"/>
<text x="168.8" y="128.0" font-family="monospace" font-size="8" text-anchor="middle" fill="#2a6db5">A5</text>
<rect x="181.3" y="60.0" width="21.1" height="7.0" fill="#aac8e0" stroke="#2a6db5" stroke-width="0.8" rx="2.5"/>
<line x1="191.8" y1="52" x2="191.8" y2="116.0" stroke="#bbb" stroke-width="0.6" stroke-dasharray="3,3"/>
<text x="191.8" y="128.0" font-family="monospace" font-size="8" text-anchor="middle" fill="#2a6db5">A6</text>
<rect x="204.3" y="60.0" width="21.1" height="7.0" fill="#aac8e0" stroke="#2a6db5" stroke-width="0.8" rx="2.5"/>
<line x1="214.9" y1="52" x2="214.9" y2="116.0" stroke="#bbb" stroke-width="0.6" stroke-dasharray="3,3"/>
<text x="214.9" y="128.0" font-family="monospace" font-size="8" text-anchor="middle" fill="#2a6db5">A7</text>
<rect x="227.4" y="60.0" width="21.1" height="7.0" fill="#aac8e0" stroke="#2a6db5" stroke-width="0.8" rx="2.5"/>
<line x1="237.9" y1="52" x2="237.9" y2="116.0" stroke="#bbb" stroke-width="0.6" stroke-dasharray="3,3"/>
<text x="237.9" y="128.0" font-family="monospace" font-size="8" text-anchor="middle" fill="#c46a00">I1</text>
<rect x="250.4" y="60.0" width="21.1" height="7.0" fill="#aac8e0" stroke="#2a6db5" stroke-width="0.8" rx="2.5"/>
<line x1="261.0" y1="52" x2="261.0" y2="116.0" stroke="#bbb" stroke-width="0.6" stroke-dasharray="3,3"/>
<text x="261.0" y="128.0" font-family="monospace" font-size="8" text-anchor="middle" fill="#c46a00">I2</text>
<rect x="273.5" y="60.0" width="21.1" height="7.0" fill="#aac8e0" stroke="#2a6db5" stroke-width="0.8" rx="2.5"/>
<line x1="284.0" y1="52" x2="284.0" y2="116.0" stroke="#bbb" stroke-width="0.6" stroke-dasharray="3,3"/>
<text x="284.0" y="128.0" font-family="monospace" font-size="8" text-anchor="middle" fill="#c46a00">I3</text>
<rect x="296.6" y="60.0" width="21.1" height="7.0" fill="#aac8e0" stroke="#2a6db5" stroke-width="0.8" rx="2.5"/>
<line x1="307.1" y1="52" x2="307.1" y2="116.0" stroke="#bbb" stroke-width="0.6" stroke-dasharray="3,3"/>
<text x="307.1" y="128.0" font-family="monospace" font-size="8" text-anchor="middle" fill="#c46a00">I4</text>
<rect x="319.6" y="60.0" width="21.1" height="7.0" fill="#aac8e0" stroke="#2a6db5" stroke-width="0.8" rx="2.5"/>
<line x1="330.1" y1="52" x2="330.1" y2="116.0" stroke="#bbb" stroke-width="0.6" stroke-dasharray="3,3"/>
<text x="330.1" y="128.0" font-family="monospace" font-size="8" text-anchor="middle" fill="#c46a00">I5</text>
<rect x="342.7" y="60.0" width="21.1" height="7.0" fill="#aac8e0" stroke="#2a6db5" stroke-width="0.8" rx="2.5"/>
<line x1="353.2" y1="52" x2="353.2" y2="116.0" stroke="#bbb" stroke-width="0.6" stroke-dasharray="3,3"/>
<text x="353.2" y="128.0" font-family="monospace" font-size="8" text-anchor="middle" fill="#c46a00">I6</text>
<line x1="55" y1="60" x2="55" y2="67.0" stroke="#2a6db5" stroke-width="1.5" marker-end="url(#arr)"/>
<text x="60" y="71.0" font-family="monospace" font-size="9" fill="#2a6db5">Pocket depth = 0.219"  (1/3 × OD)</text>
<circle cx="58.0" cy="84.0" r="3" fill="white" stroke="#444" stroke-width="1.2"/>
<text x="58.0" y="99.0" font-family="monospace" font-size="8" text-anchor="middle" fill="#444">⌀1/8"</text>
<circle cx="371.7" cy="84.0" r="3" fill="white" stroke="#444" stroke-width="1.2"/>
<text x="371.7" y="99.0" font-family="monospace" font-size="8" text-anchor="middle" fill="#444">⌀1/8"</text>
<line x1="50" y1="163.0" x2="379.7" y2="163.0" stroke="#333" stroke-width="1"/>
<line x1="50.0" y1="158.0" x2="50.0" y2="168.0" stroke="#333" stroke-width="1"/>
<line x1="379.7" y1="158.0" x2="379.7" y2="168.0" stroke="#333" stroke-width="1"/>
<text x="214.9" y="178.0" font-family="monospace" font-size="9" text-anchor="middle">Rail total: 10.304"  (incl. ½" overhang each end)</text>
<line x1="66.0" y1="191.0" x2="363.7" y2="191.0" stroke="#333" stroke-width="1.2"/>
<line x1="66.0" y1="186.0" x2="66.0" y2="196.0" stroke="#333" stroke-width="1.2"/>
<line x1="363.7" y1="186.0" x2="363.7" y2="196.0" stroke="#333" stroke-width="1.2"/>
<text x="214.9" y="206.0" font-family="monospace" font-size="9" text-anchor="middle" font-weight="bold">Frame width = 9.304"  (13 pockets @ 0.7205" c/c)</text>
<rect x="0" y="163" width="409" height="65" fill="#f5f5f5" stroke="#444" stroke-width="1"/>
<text x="10" y="179" font-family="monospace" font-size="11" font-weight="bold">SIKU · MALTA · KEY G4  —  FRAME RAIL PLAN (Top View)</text>
<text x="10" y="193" font-family="monospace" font-size="9">Rail: 3/8" thick × 1.5" wide × 10.304" long   |   OD: 0.658"   Pocket: 0.658"W × 0.219"D (1/3 OD)   Spacing: 0.7205" c/c</text>
<text x="10" y="207" font-family="monospace" font-size="9">Species: Cherry or Walnut  |  Finish: Watco Danish Oil 3 coats  |  Cord holes: ⌀1/8" at each end</text>
<text x="10" y="221" font-family="monospace" font-size="9">Date: 2026-05-08   Rev: A   tonykoop/siku-zampona   CC BY 4.0</text>
</svg>